<svg version="1.1" xmlns="http://www.w3.org/2000/svg" xmlns:xlink="http://www.w3.org/1999/xlink" x="0px" y="0px" width="18.776px" height="20px" viewBox="0 0 18.776 20" enable-background="new 0 0 18.776 20" xml:space="preserve">
<g><path fill="#B6A379" d="M3.537,7.591C3.537,3.405,6.94,0,11.128,0c4.188,0,7.595,3.406,7.595,7.591
    c0,4.187-3.406,7.593-7.595,7.593C6.94,15.185,3.537,11.778,3.537,7.591z M5.245,7.591c0,3.246,2.643,5.885,5.884,5.885
    c3.244,0,5.89-2.64,5.89-5.885c0-3.245-2.646-5.882-5.89-5.882C7.883,1.71,5.245,4.348,5.245,7.591z"></path>

    <rect x="2.418" y="11.445" transform="matrix(0.7066 0.7076 -0.7076 0.7066 11.7842 2.0922)" fill="#B6A379" width="1.902" height="7.622"></rect>
</g>
</svg>